<?xml version="1.0" standalone="no"?><!DOCTYPE svg PUBLIC "-//W3C//DTD SVG 1.1//EN" "http://www.w3.org/Graphics/SVG/1.1/DTD/svg11.dtd"><svg t="1574758812632" class="icon" viewBox="0 0 1024 1024" version="1.1" xmlns="http://www.w3.org/2000/svg" p-id="2404" xmlns:xlink="http://www.w3.org/1999/xlink" width="64" height="64"><defs><style type="text/css"></style></defs><path d="M896 512a384 384 0 1 0-384 384 384 384 0 0 0 384-384z m64 0A448 448 0 1 1 512 64a448 448 0 0 1 448 448z" p-id="2405"></path><path d="M406.72 662.72a32 32 0 0 1-45.44-45.44l256-256a32 32 0 0 1 45.44 45.44z" p-id="2406"></path><path d="M361.28 406.72a32 32 0 0 1 45.44-45.44l256 256a32 32 0 0 1-45.44 45.44z" p-id="2407"></path></svg>