<?xml version="1.0" standalone="no"?><!DOCTYPE svg PUBLIC "-//W3C//DTD SVG 1.1//EN" "http://www.w3.org/Graphics/SVG/1.1/DTD/svg11.dtd"><svg t="1568556964167" class="icon" viewBox="0 0 1024 1024" version="1.1" xmlns="http://www.w3.org/2000/svg" p-id="8147" xmlns:xlink="http://www.w3.org/1999/xlink" width="32" height="32"><defs><style type="text/css"></style></defs><path d="M560 975.99999969s-3.19999969 0 0 0l-515.20000031-96c-6.40000031-3.19999969-12.79999969-9.6-12.79999969-15.99999938V192.00000031c0-6.40000031 6.40000031-12.79999969 12.79999969-16.00000031l512.00000062-127.99999969c3.19999969 0 9.6 0 12.79999969 3.19999969 3.19999969 3.19999969 6.40000031 6.40000031 6.40000031 12.79999969v896.00000062c0 3.19999969-3.19999969 9.6-6.40000031 12.79999969-3.19999969 3.19999969-6.40000031 3.19999969-9.6 3.19999969zM63.99999969 851.19999969l480 89.60000062V83.19999969L63.99999969 204.8v646.39999969z" fill="" p-id="8148"></path><path d="M975.99999969 912.00000031h-415.99999969c-9.6 0-16.00000031-6.40000031-16.00000031-16.00000031s6.40000031-16.00000031 16.00000031-16.00000031H960.00000031v-735.99999938H576.00000031c-9.6 0-16.00000031-6.40000031-16.00000031-16.00000031s6.40000031-16.00000031 16.00000031-16.00000031h399.99999938c9.6 0 16.00000031 6.40000031 16.00000031 16.00000031v768c0 9.6-6.40000031 16.00000031-16.00000031 16.00000031zM399.99999969 687.99999969c-6.40000031 0-9.6-3.19999969-12.79999969-6.39999938l-192-320.00000062c-6.40000031-9.6-3.19999969-19.2 3.19999969-22.39999969s16.00000031-3.19999969 22.40000062 6.40000031l192 319.99999969c3.19999969 6.40000031 3.19999969 16.00000031-6.40000031 22.39999969h-6.40000031z" fill="" p-id="8149"></path><path d="M207.99999969 687.99999969c-3.19999969 0-6.40000031 0-9.6-3.19999969-6.40000031-3.19999969-9.6-12.79999969-3.19999969-22.39999969l192-320.00000062c3.19999969-6.40000031 12.79999969-9.6 22.39999969-6.39999938 6.40000031 3.19999969 9.6 12.79999969 6.40000031 22.39999969l-192 319.99999969c-6.40000031 6.40000031-9.6 9.6-16.00000031 9.6zM720.00000031 912.00000031c-9.6 0-16.00000031-6.40000031-16.00000031-16.00000031V144.00000031c0-9.6 6.40000031-16.00000031 16.00000031-16.00000031s16.00000031 6.40000031 15.99999938 16.00000031V896c0 9.6-6.40000031 16.00000031-15.99999938 16.00000031z" fill="" p-id="8150"></path><path d="M960.00000031 783.99999969H560c-9.6 0-16.00000031-6.40000031-16.00000031-15.99999938s6.40000031-16.00000031 16.00000031-16.00000031H960.00000031c9.6 0 16.00000031 6.40000031 15.99999938 16.00000031s-6.40000031 16.00000031-15.99999938 15.99999938zM975.99999969 656h-415.99999969c-9.6 0-16.00000031-6.40000031-16.00000031-16.00000031s6.40000031-16.00000031 16.00000031-15.99999938h415.99999969c9.6 0 16.00000031 6.40000031 16.00000031 15.99999938s-6.40000031 16.00000031-16.00000031 16.00000031zM975.99999969 528.00000031H576.00000031c-9.6 0-16.00000031-6.40000031-16.00000031-16.00000031s6.40000031-16.00000031 16.00000031-16.00000031h399.99999938c9.6 0 16.00000031 6.40000031 16.00000031 16.00000031s-6.40000031 16.00000031-16.00000031 16.00000031zM969.60000031 399.99999969H569.6c-9.6 0-16.00000031-6.40000031-16.00000031-15.99999938s6.40000031-16.00000031 16.00000031-16.00000031h400.00000031c9.6 0 16.00000031 6.40000031 15.99999938 16.00000031s-9.6 16.00000031-15.99999938 15.99999938zM975.99999969 272h-415.99999969c-9.6 0-16.00000031-6.40000031-16.00000031-16.00000031s6.40000031-16.00000031 16.00000031-15.99999938h415.99999969c9.6 0 16.00000031 6.40000031 16.00000031 15.99999938s-6.40000031 16.00000031-16.00000031 16.00000031z" fill="" p-id="8151"></path></svg>