<?xml version="1.0" standalone="no"?><!DOCTYPE svg PUBLIC "-//W3C//DTD SVG 1.1//EN" "http://www.w3.org/Graphics/SVG/1.1/DTD/svg11.dtd"><svg t="1569552384804" class="icon" viewBox="0 0 1024 1024" version="1.1" xmlns="http://www.w3.org/2000/svg" p-id="1788" width="64" height="64" xmlns:xlink="http://www.w3.org/1999/xlink"><defs><style type="text/css"></style></defs><path d="M928 0a96 96 0 1 0 0 192 96 96 0 0 0 0-192z m0 128.336a32.336 32.336 0 1 1 0-64.672 32.336 32.336 0 0 1 0 64.672z" fill="#EDA096" p-id="1789"></path><path d="M896 330.88V320a64 64 0 0 0-64-64c-0.736 0-1.408 0.192-2.144 0.224a66.528 66.528 0 0 0-38.16 9.584l-181.088 109.696c-33.344 20.224-44.768 64.944-25.52 99.936 19.248 34.976 61.888 46.96 95.216 26.768L768 449.072V960a64 64 0 0 0 128 0V334.752c0.096-1.28-0.032-2.576 0-3.872zM512 320c0-0.336-0.096-0.656-0.096-1.008a61.136 61.136 0 0 0-50.208-61.456A64.384 64.384 0 0 0 448 256H64a64 64 0 0 0 0 128h233.584l-151.136 151.136a61.456 61.456 0 0 0 0 86.912 61.104 61.104 0 0 0 45.632 17.776L192 640h64a128 128 0 1 1 0 256 128 128 0 0 1-128-128 64 64 0 0 0-128 0c0 141.392 114.624 256 256 256s256-114.608 256-256c0-114.944-75.76-212.192-180.08-244.544l148.64-148.656A63.68 63.68 0 0 0 512 320z" fill="#ED7161" p-id="1790"></path></svg>