<?xml version="1.0" standalone="no"?><!DOCTYPE svg PUBLIC "-//W3C//DTD SVG 1.1//EN" "http://www.w3.org/Graphics/SVG/1.1/DTD/svg11.dtd"><svg t="1586447598643" class="icon" viewBox="0 0 1024 1024" version="1.1" xmlns="http://www.w3.org/2000/svg" p-id="3429" xmlns:xlink="http://www.w3.org/1999/xlink" width="200" height="200"><defs><style type="text/css"></style></defs><path d="M747.776 889.344H270.592c-39.168 0-75.776-8.704-103.168-24.576-35.072-20.48-54.272-51.968-54.272-88.832v-2.56c0-46.08 33.792-100.608 76.8-128.768-14.336-51.2-14.336-117.76-14.336-168.192 0-150.784 68.864-266.24 194.048-326.912 14.848-58.88 71.936-101.632 139.52-101.632s124.672 42.752 139.52 101.632c123.392 60.16 194.048 181.248 194.048 334.592 0 50.176 0 111.104-14.08 160.512 17.152 11.008 33.792 26.368 47.616 44.288 22.272 28.416 34.56 58.88 34.56 85.76v2.56c0 77.056-84.48 112.128-163.072 112.128zM509.184 104.192c-44.288 0-82.176 29.696-86.528 67.84l-1.792 16.128-14.848 6.4c-113.92 49.664-174.08 147.2-174.08 281.6 0 51.2 0 128.512 18.176 170.752l11.776 26.88-27.392 10.496c-31.488 12.288-65.024 57.856-65.024 88.832v2.56c0 27.648 31.744 57.344 101.12 57.344h477.184c43.008 0 106.752-14.848 106.752-56.064v-2.56c0-29.952-37.12-77.056-70.656-90.112l-27.392-10.496 11.776-26.88c18.176-42.24 18.176-112.128 18.176-163.072 0-69.12-15.872-129.792-46.848-180.224-29.952-48.64-72.704-85.248-127.232-109.056l-14.848-6.4-1.792-16.128c-4.352-38.144-42.24-67.84-86.528-67.84z" p-id="3430"></path><path d="M512 976.128c-87.552 0-155.904-49.92-155.904-113.664v-2.048l0.512-27.392h310.784l0.512 27.392v2.048c0 63.744-68.352 113.664-155.904 113.664z m-87.04-86.784c17.408 17.664 50.688 30.464 87.04 30.464s69.888-12.544 87.04-30.464h-174.08z" p-id="3431"></path></svg>