<?xml version="1.0" standalone="no"?><!DOCTYPE svg PUBLIC "-//W3C//DTD SVG 1.1//EN" "http://www.w3.org/Graphics/SVG/1.1/DTD/svg11.dtd"><svg t="1574758889698" class="icon" viewBox="0 0 1024 1024" version="1.1" xmlns="http://www.w3.org/2000/svg" p-id="3856" xmlns:xlink="http://www.w3.org/1999/xlink" width="64" height="64"><defs><style type="text/css"></style></defs><path d="M895.969 336.015l0 575.953c0 26.497-21.498 47.995-47.998 47.995L176.028 959.963c-26.498 0-47.996-21.498-47.996-47.995L128.032 112.033c0-26.498 21.499-47.996 47.996-47.996L623.99 64.037c26.498 0 63.494 15.499 81.994 33.997l155.986 155.987C880.469 272.52 895.969 309.517 895.969 336.015zM831.973 384.011 623.99 384.011c-26.498 0-47.996-21.499-47.996-47.996L575.994 128.032 192.026 128.032l0 767.936 639.946 0L831.972 384.011zM639.99 320.016l187.984 0c-3-8.5-7.5-16.999-11-20.499L660.488 143.03c-3.5-3.5-12-7.999-20.498-10.999L639.99 320.016z" p-id="3857"></path><path d="M796.394 580.111c-13.039-15.483-39.777-23.011-81.741-23.011-24.393 0-53.857 2.575-87.626 7.658-92.235-67.438-117.988-141.834-117.988-141.834s15.753-40.104 16.753-105.604c0.632-41.405-5.78-69.335-22.346-85.562-6.439-6.308-17.241-10.383-27.519-10.383-8.021 0-15.532 2.356-21.687 6.86-47.949 35.085 4.401 200.485 5.802 204.892-22.627 55.688-51.132 114.686-80.47 166.526-9.532 16.844-8.603 15.526-16.64 29.223 0 0-81.141 38.112-120.498 84.923-22.238 26.449-25.049 44.306-23.868 57.914l0.03 0.297c1.874 16.023 22.387 30.616 43.039 30.616 0.856 0 1.719-0.026 2.563-0.078 20.989-1.295 43.989-16.209 70.314-45.594 17.376-19.398 39.958-53.526 67.147-101.475 78.009-22.19 146.661-37.995 204.195-47.01 42.19 22.706 104.963 48.419 147.693 48.419 14.334 0 25.864-2.922 34.271-8.685 10.059-6.893 14.33-15.481 16.985-31.383S803.762 588.859 796.394 580.111zM705.261 599.473c37.504 0 57.811 5.453 68.241 10.027 3.218 1.411 5.558 2.771 7.218 3.909-2.939 1.879-8.721 4.25-19.171 4.25-17.327 0-40.069-6.051-67.808-18.022C697.687 599.527 701.528 599.473 705.261 599.473zM482.992 254.571c0.026-0.049 0.055-0.101 0.088-0.154 8.045 4.236 11.799 33.986 11.045 51.236-1.012 23.149-1.252 32.094-5.316 46.316C477.791 322.32 477.01 269.024 482.992 254.571zM485.935 489.25c18.918 30.724 46.975 63.999 74.007 87.758-52.76 11.15-103.416 25.127-134.937 36.006C458.791 555.32 483.716 494.969 485.935 489.25zM268.785 754.176c4.578-7.625 17.084-22.398 48.8-50.966-21.74 32.696-37.708 50.501-53.91 61.605C265.017 761.314 266.705 757.642 268.785 754.176z" p-id="3858"></path></svg>