<?xml version="1.0" standalone="no"?><!DOCTYPE svg PUBLIC "-//W3C//DTD SVG 1.1//EN" "http://www.w3.org/Graphics/SVG/1.1/DTD/svg11.dtd"><svg t="1568557070530" class="icon" viewBox="0 0 1024 1024" version="1.1" xmlns="http://www.w3.org/2000/svg" p-id="8267" xmlns:xlink="http://www.w3.org/1999/xlink" width="32" height="32"><defs><style type="text/css"></style></defs><path d="M502.67932445 482.48452741a233.01688889 233.01688889 0 1 0 0-329.3305363 233.01688889 233.01688889 0 0 0 0 329.3305363z m-55.14733037 55.14733037a310.68918518 310.68918518 0 1 1 439.62519703 0 310.68918518 310.68918518 0 0 1-439.62519703 0z" p-id="8268"></path><path d="M445.59018667 523.26248297a38.83614815 38.83614815 0 0 1 55.14733036 55.14733036l-310.68918518 310.68918519a38.83614815 38.83614815 0 0 1-55.14733037-55.14733037z" p-id="8269"></path><path d="M461.90136889 717.4432237a38.83614815 38.83614815 0 0 1-55.14733037 55.14733038l-38.83614815-38.83614816a38.83614815 38.83614815 0 0 1 55.14733038-55.14733037zM384.22907259 833.95166815a38.83614815 38.83614815 0 0 1-55.14733037 55.14733037l-77.6722963-77.6722963a38.83614815 38.83614815 0 0 1 55.14733038-55.14733037z" p-id="8270"></path></svg>