<?xml version="1.0" standalone="no"?><!DOCTYPE svg PUBLIC "-//W3C//DTD SVG 1.1//EN" "http://www.w3.org/Graphics/SVG/1.1/DTD/svg11.dtd"><svg t="1568556772763" class="icon" viewBox="0 0 1024 1024" version="1.1" xmlns="http://www.w3.org/2000/svg" p-id="5655" width="32" height="32" xmlns:xlink="http://www.w3.org/1999/xlink"><defs><style type="text/css"></style></defs><path d="M834.00000031 32L189.99999969 32C102.87999969 32 32 102.87999969 32 189.99999969l0 643.96000031C32 921.12000031 102.87999969 992 189.99999969 992l643.99999968 0c87.12 0 157.99999969-70.87999969 157.99999969-158.04L992 189.99999969C992 102.87999969 921.12000031 32 834.00000031 32zM330.99999969 492.00000031L72.00000031 492.00000031l0-190.00000031 259.00000031 0L330.99999969 492.00000031zM371 302L951.99999969 302 951.99999969 492.00000031 371 492.00000031 371 302zM72.00000031 531.99999969l259.00000031 0 0 190.02L72.00000031 722.01999969 72.00000031 531.99999969zM371 531.99999969L951.99999969 531.99999969l0 190.02L371 722.01999969 371 531.99999969zM951.99999969 189.99999969l0 72L371 261.99999969 371 75.00000031c0-1.06000031-0.43999969-1.98-0.6-3L834.00000031 72.00000031C899.07999969 72.00000031 951.99999969 124.92000031 951.99999969 189.99999969zM189.99999969 72.00000031l141.61999969 0c-0.16000031 1.02-0.6 1.93999969-0.6 3l0 187.00000031L72.00000031 261.99999969 72.00000031 189.99999969C72.00000031 124.92000031 124.92000031 72.00000031 189.99999969 72.00000031zM72.00000031 833.96l0-71.94 259.00000031 0 0 186.97999969c0 1.08 0.43999969 1.99999969 0.6 3L189.99999969 951.99999969C124.92000031 951.99999969 72.00000031 899.07999969 72.00000031 833.96zM834.00000031 951.99999969L370.4 951.99999969c0.16000031-1.02 0.6-1.93999969 0.6-3l0-186.97999969L951.99999969 762.02l0 71.94C951.99999969 899.07999969 899.07999969 951.99999969 834.00000031 951.99999969z" p-id="5656"></path></svg>